<mxfile host="app.diagrams.net" modified="2024-06-28T00:58:01.388Z" agent="Mozilla/5.0 (Macintosh; Intel Mac OS X 10_15_7) AppleWebKit/537.36 (KHTML, like Gecko) Chrome/123.0.0.0 Safari/537.36" version="24.6.4" etag="n_bklhUIYhZoVrGUWHHt" type="github">
  <diagram name="Page-1" id="K89Kkb-arK3jmFL3uXTj">
    <mxGraphModel>
      <root>
        <mxCell id="0" />
        <mxCell id="1" parent="0" />
      </root>
    </mxGraphModel>
  </diagram>
</mxfile>
